<svg width="322" height="46" viewBox="0 0 322 46" fill="none" xmlns="http://www.w3.org/2000/svg">
<g clip-path="url(#clip0_28_1031)">
<path d="M19.8199 4.60999C17.9499 2.91999 15.5999 1.9 12.8099 1.59L0.179932 1.42999V39.95H5.56995V22.9H13.1199C15.9499 22.62 18.2699 21.49 20.0299 19.54C21.7799 17.59 22.67 15.22 22.67 12.49V11.17C22.67 8.53001 21.7099 6.32001 19.8199 4.60001V4.60999ZM5.56995 6.20999H11.2599C12.1099 6.33999 12.9299 6.53999 13.6899 6.79999C14.8599 7.27999 15.7399 7.98999 16.3099 8.92999C16.8799 9.87999 17.17 10.96 17.17 12.14C17.17 13.55 16.7599 14.85 15.9599 16.02C15.1699 17.16 14.0899 17.96 12.7399 18.37H5.56995V6.20999Z" fill="#1D1D1B"/>
<path d="M56.4 1.42999H50.96V39.94H70.34V35.11H56.4V1.42999Z" fill="#1D1D1B"/>
<path d="M112.57 0.359985H110.85L93.9399 39.95H99.6499L104.49 28.21H119.04L123.87 39.94H129.99L112.66 0.579987L112.56 0.359985H112.57ZM117.29 24.04H105.91L111.5 9.16L117.29 24.04Z" fill="#1D1D1B"/>
<path d="M176.95 1.42999H151.4V6.06H169.3L148.34 38.55L148.28 38.64V39.94H176.75V35.32H156.06L176.96 3.20001L176.95 1.42999Z" fill="#1D1D1B"/>
<path d="M214.73 0.579987L214.63 0.359985H212.91L196 39.95H201.71L206.55 28.21H221.1L225.93 39.94H232.05L214.72 0.579987H214.73ZM219.36 24.04H207.98L213.57 9.16L219.36 24.04Z" fill="#1D1D1B"/>
<path d="M247.15 21.4H241.29V17.03H239.75V28.31H241.29V22.81H247.15V28.31H248.7V17.03H247.15V21.4Z" fill="#E30613"/>
<path d="M259.07 16.72C257.41 16.72 255.98 17.31 254.81 18.48C253.64 19.65 253.05 21.08 253.05 22.74C253.05 24.4 253.66 25.78 254.87 26.91C256.08 28.04 257.54 28.61 259.21 28.61C260.88 28.61 262.3 28.02 263.47 26.85C264.64 25.68 265.23 24.25 265.23 22.59C265.23 20.93 264.62 19.55 263.41 18.42C262.2 17.29 260.74 16.72 259.07 16.72ZM259.22 27.1C257.97 27.1 256.89 26.67 256.01 25.83C255.13 24.99 254.68 23.94 254.68 22.72C254.68 21.5 255.11 20.39 255.96 19.51C256.8 18.62 257.85 18.18 259.07 18.18C260.29 18.18 261.39 18.61 262.28 19.46C263.17 20.31 263.61 21.36 263.61 22.58C263.61 23.8 263.18 24.89 262.33 25.78C261.49 26.67 260.44 27.11 259.22 27.11V27.1Z" fill="#E30613"/>
<path d="M269.9 18.45H273.08V28.31H274.7V18.45H277.87V17.03H269.9V18.45Z" fill="#E30613"/>
<path d="M285.58 28.31H291.83V26.87H287.16V22.87H291.83V21.49H287.16V18.48H291.83V17.03H285.58V28.31Z" fill="#E30613"/>
<path d="M302.29 17.03H300.67V28.31H306.36V26.87H302.29V17.03Z" fill="#E30613"/>
<path d="M321.75 23.5C321.47 22.99 321.05 22.58 320.5 22.28L317.68 21.24C317.09 20.92 316.81 20.47 316.81 19.84C316.81 19.58 316.87 19.32 316.97 19.08C317.14 18.78 317.35 18.56 317.6 18.42C317.86 18.29 318.17 18.22 318.51 18.22C318.98 18.22 319.42 18.36 319.81 18.62C320.2 18.88 320.45 19.23 320.55 19.66L320.59 19.81L322.01 19.15L321.98 19.05C321.8 18.5 321.49 18.04 321.06 17.67C320.62 17.3 320.2 17.07 319.81 16.99C319.56 16.94 319.23 16.88 319.11 16.86C319.01 16.85 318.89 16.84 318.72 16.84C318.34 16.84 317.91 16.89 317.44 16.98C316.94 17.08 316.48 17.36 316.07 17.82C315.66 18.27 315.41 18.71 315.33 19.13C315.25 19.53 315.22 19.81 315.22 19.97C315.22 20.58 315.4 21.14 315.77 21.62C316.13 22.1 316.61 22.48 317.2 22.76L319.1 23.43C319.47 23.59 319.72 23.72 319.84 23.79C319.96 23.86 320.12 24.01 320.32 24.23C320.51 24.43 320.61 24.76 320.61 25.2C320.61 25.5 320.55 25.79 320.42 26.05C320.3 26.32 320.13 26.53 319.92 26.69C319.71 26.85 319.49 26.96 319.27 27.03C319.05 27.1 318.82 27.14 318.6 27.14C318.02 27.14 317.53 26.95 317.1 26.55C316.68 26.15 316.47 25.67 316.47 25.08V24.88L314.99 25.63L315.02 25.73C315.17 26.26 315.34 26.69 315.53 27.02C315.72 27.36 316 27.66 316.37 27.94C317.03 28.34 317.77 28.54 318.57 28.54C319.46 28.54 320.27 28.29 320.99 27.78C321.39 27.43 321.69 27.03 321.89 26.58C322.09 26.13 322.19 25.65 322.19 25.16C322.19 24.59 322.05 24.04 321.77 23.53L321.75 23.5Z" fill="#E30613"/>
</g>
<defs>
<clipPath id="clip0_28_1031">
<rect width="322" height="46" fill="white"/>
</clipPath>
</defs>
</svg>
